<svg xmlns="http://www.w3.org/2000/svg"  viewBox="0 0 50 50" width="150px" height="150px"><path d="M 14.71875 2 C 14.167969 2.078125 13.78125 2.589844 13.859375 3.140625 C 13.9375 3.691406 14.449219 4.078125 15 4 L 35 4 C 35.359375 4.003906 35.695313 3.816406 35.878906 3.503906 C 36.058594 3.191406 36.058594 2.808594 35.878906 2.496094 C 35.695313 2.183594 35.359375 1.996094 35 2 L 15 2 C 14.96875 2 14.9375 2 14.90625 2 C 14.875 2 14.84375 2 14.8125 2 C 14.78125 2 14.75 2 14.71875 2 Z M 24.9375 4.96875 C 24.894531 4.976563 24.851563 4.988281 24.8125 5 C 24.558594 5.050781 24.335938 5.195313 24.1875 5.40625 L 20.1875 10.71875 C 19.851563 11.167969 19.941406 11.804688 20.390625 12.140625 C 20.839844 12.476563 21.476563 12.386719 21.8125 11.9375 L 24 9.03125 L 24 40.96875 L 21.8125 38.0625 C 21.59375 37.753906 21.21875 37.597656 20.84375 37.65625 C 20.480469 37.699219 20.171875 37.9375 20.035156 38.273438 C 19.898438 38.613281 19.957031 39 20.1875 39.28125 L 24.1875 44.59375 C 24.375 44.855469 24.679688 45.011719 25 45.011719 C 25.320313 45.011719 25.625 44.855469 25.8125 44.59375 L 29.8125 39.28125 C 30.148438 38.832031 30.058594 38.195313 29.609375 37.859375 C 29.160156 37.523438 28.523438 37.613281 28.1875 38.0625 L 26 40.96875 L 26 9.03125 L 28.1875 11.9375 C 28.523438 12.386719 29.160156 12.476563 29.609375 12.140625 C 30.058594 11.804688 30.148438 11.167969 29.8125 10.71875 L 25.8125 5.40625 C 25.617188 5.117188 25.285156 4.953125 24.9375 4.96875 Z M 15 6 C 14.449219 6 14 6.449219 14 7 C 14 7.550781 14.449219 8 15 8 C 15.550781 8 16 7.550781 16 7 C 16 6.449219 15.550781 6 15 6 Z M 35 6 C 34.449219 6 34 6.449219 34 7 C 34 7.550781 34.449219 8 35 8 C 35.550781 8 36 7.550781 36 7 C 36 6.449219 35.550781 6 35 6 Z M 15 10 C 14.449219 10 14 10.449219 14 11 C 14 11.550781 14.449219 12 15 12 C 15.550781 12 16 11.550781 16 11 C 16 10.449219 15.550781 10 15 10 Z M 35 10 C 34.449219 10 34 10.449219 34 11 C 34 11.550781 34.449219 12 35 12 C 35.550781 12 36 11.550781 36 11 C 36 10.449219 35.550781 10 35 10 Z M 15 14 C 14.449219 14 14 14.449219 14 15 C 14 15.550781 14.449219 16 15 16 C 15.550781 16 16 15.550781 16 15 C 16 14.449219 15.550781 14 15 14 Z M 35 14 C 34.449219 14 34 14.449219 34 15 C 34 15.550781 34.449219 16 35 16 C 35.550781 16 36 15.550781 36 15 C 36 14.449219 35.550781 14 35 14 Z M 15 18 C 14.449219 18 14 18.449219 14 19 C 14 19.550781 14.449219 20 15 20 C 15.550781 20 16 19.550781 16 19 C 16 18.449219 15.550781 18 15 18 Z M 35 18 C 34.449219 18 34 18.449219 34 19 C 34 19.550781 34.449219 20 35 20 C 35.550781 20 36 19.550781 36 19 C 36 18.449219 35.550781 18 35 18 Z M 15 22 C 14.449219 22 14 22.449219 14 23 C 14 23.550781 14.449219 24 15 24 C 15.550781 24 16 23.550781 16 23 C 16 22.449219 15.550781 22 15 22 Z M 35 22 C 34.449219 22 34 22.449219 34 23 C 34 23.550781 34.449219 24 35 24 C 35.550781 24 36 23.550781 36 23 C 36 22.449219 35.550781 22 35 22 Z M 15 26 C 14.449219 26 14 26.449219 14 27 C 14 27.550781 14.449219 28 15 28 C 15.550781 28 16 27.550781 16 27 C 16 26.449219 15.550781 26 15 26 Z M 35 26 C 34.449219 26 34 26.449219 34 27 C 34 27.550781 34.449219 28 35 28 C 35.550781 28 36 27.550781 36 27 C 36 26.449219 35.550781 26 35 26 Z M 15 30 C 14.449219 30 14 30.449219 14 31 C 14 31.550781 14.449219 32 15 32 C 15.550781 32 16 31.550781 16 31 C 16 30.449219 15.550781 30 15 30 Z M 35 30 C 34.449219 30 34 30.449219 34 31 C 34 31.550781 34.449219 32 35 32 C 35.550781 32 36 31.550781 36 31 C 36 30.449219 35.550781 30 35 30 Z M 15 34 C 14.449219 34 14 34.449219 14 35 C 14 35.550781 14.449219 36 15 36 C 15.550781 36 16 35.550781 16 35 C 16 34.449219 15.550781 34 15 34 Z M 35 34 C 34.449219 34 34 34.449219 34 35 C 34 35.550781 34.449219 36 35 36 C 35.550781 36 36 35.550781 36 35 C 36 34.449219 35.550781 34 35 34 Z M 15 38 C 14.449219 38 14 38.449219 14 39 C 14 39.550781 14.449219 40 15 40 C 15.550781 40 16 39.550781 16 39 C 16 38.449219 15.550781 38 15 38 Z M 35 38 C 34.449219 38 34 38.449219 34 39 C 34 39.550781 34.449219 40 35 40 C 35.550781 40 36 39.550781 36 39 C 36 38.449219 35.550781 38 35 38 Z M 15 42 C 14.449219 42 14 42.449219 14 43 C 14 43.550781 14.449219 44 15 44 C 15.550781 44 16 43.550781 16 43 C 16 42.449219 15.550781 42 15 42 Z M 35 42 C 34.449219 42 34 42.449219 34 43 C 34 43.550781 34.449219 44 35 44 C 35.550781 44 36 43.550781 36 43 C 36 42.449219 35.550781 42 35 42 Z M 14.71875 46 C 14.167969 46.078125 13.78125 46.589844 13.859375 47.140625 C 13.9375 47.691406 14.449219 48.078125 15 48 L 35 48 C 35.359375 48.003906 35.695313 47.816406 35.878906 47.503906 C 36.058594 47.191406 36.058594 46.808594 35.878906 46.496094 C 35.695313 46.183594 35.359375 45.996094 35 46 L 15 46 C 14.96875 46 14.9375 46 14.90625 46 C 14.875 46 14.84375 46 14.8125 46 C 14.78125 46 14.75 46 14.71875 46 Z"/></svg>