<svg xmlns="http://www.w3.org/2000/svg"  viewBox="0 0 64 64" width="128px" height="128px"><path d="M 9 2 C 5.1 2 2 5.1 2 9 L 2 55 C 2 58.9 5.1 62 9 62 L 55 62 C 58.9 62 62 58.9 62 55 L 62 9 C 62 5.1 58.9 2 55 2 L 9 2 z M 9 4 L 55 4 C 57.8 4 60 6.2 60 9 L 60 55 C 60 57.8 57.8 60 55 60 L 9 60 C 6.2 60 4 57.8 4 55 L 4 9 C 4 6.2 6.2 4 9 4 z M 11 5 C 7.7 5 5 7.7 5 11 L 5 53 C 5 56.3 7.7 59 11 59 L 53 59 C 56.3 59 59 56.3 59 53 L 59 11 C 59 7.7 56.3 5 53 5 L 51 5 C 50.4 5 50 5.4 50 6 L 50 24 L 14 24 L 14 6 C 14 5.4 13.6 5 13 5 L 11 5 z M 17 6 C 15.9 6 15 6.9 15 8 L 15 21 C 15 22.1 15.9 23 17 23 L 47 23 C 48.1 23 49 22.1 49 21 L 49 8 C 49 6.9 48.1 6 47 6 L 17 6 z M 11 7 L 12 7 L 12 24 C 12 25.1 12.9 26 14 26 L 50 26 C 51.1 26 52 25.1 52 24 L 52 7 L 53 7 C 55.2 7 57 8.8 57 11 L 57 53 C 57 55.2 55.2 57 53 57 L 11 57 C 8.8 57 7 55.2 7 53 L 7 11 C 7 8.8 8.8 7 11 7 z M 17 8 L 47 8 L 47 17 C 44.4 15.2 38.8 12 32 12 C 25.2 12 19.6 15.2 17 17 L 17 8 z M 31 9 L 31 11 L 33 11 L 33 9 L 31 9 z M 24 10 L 24 12 L 26 12 L 26 10 L 24 10 z M 38 10 L 38 12 L 40 12 L 40 10 L 38 10 z M 18 12 L 18 14 L 20 14 L 20 12 L 18 12 z M 44 12 L 44 14 L 46 14 L 46 12 L 44 12 z M 32 14 C 39.4 14 45.5 18.3 47 19.5 L 47 21 L 32.5 21 L 28.800781 16.400391 L 27.199219 17.599609 L 29.900391 21 L 17 21 L 17 19.5 C 18.5 18.3 24.6 14 32 14 z"/></svg>