<svg xmlns="http://www.w3.org/2000/svg"  viewBox="0 0 50 50" width="150px" height="150px"><path d="M 12 0 C 10.90625 0 10 0.90625 10 2 L 10 4 L 4 4 C 3.574219 4 3.136719 4.097656 2.734375 4.382813 C 2.332031 4.664063 2 5.21875 2 5.792969 L 2 46.042969 C 2 47.089844 2.847656 48 3.917969 48 L 46.082031 48 C 47.15625 48 48 47.089844 48 46.042969 L 48 5.792969 C 48 5.21875 47.667969 4.664063 47.265625 4.382813 C 46.863281 4.097656 46.425781 4 46 4 L 40 4 L 40 2 C 40 0.90625 39.09375 0 38 0 L 36 0 C 34.90625 0 34 0.90625 34 2 L 34 4 L 16 4 L 16 2 C 16 0.90625 15.09375 0 14 0 Z M 12 2 L 14 2 L 14 8 L 12 8 Z M 36 2 L 38 2 L 38 8 L 36 8 Z M 4 6 L 10 6 L 10 8 C 10 9.09375 10.90625 10 12 10 L 14 10 C 15.09375 10 16 9.09375 16 8 L 16 6 L 34 6 L 34 8 C 34 9.09375 34.90625 10 36 10 L 38 10 C 39.09375 10 40 9.09375 40 8 L 40 6 L 46 6 L 46 13 L 4 13 Z M 4 15 L 46 15 L 46 46 L 4 46 Z M 24.984375 20 C 24.722656 20.003906 24.476563 20.109375 24.292969 20.292969 L 18.292969 26.292969 C 18.007813 26.578125 17.921875 27.007813 18.078125 27.382813 C 18.230469 27.757813 18.59375 28 19 28 L 31 28 C 31.40625 28 31.769531 27.757813 31.921875 27.382813 C 32.078125 27.007813 31.992188 26.578125 31.707031 26.292969 L 25.707031 20.292969 C 25.515625 20.101563 25.253906 19.996094 24.984375 20 Z M 25 22.414063 L 28.585938 26 L 21.414063 26 Z M 19 32 C 18.59375 32 18.230469 32.242188 18.078125 32.617188 C 17.921875 32.992188 18.007813 33.421875 18.292969 33.707031 L 24.292969 39.707031 C 24.683594 40.097656 25.316406 40.097656 25.707031 39.707031 L 31.707031 33.707031 C 31.992188 33.421875 32.078125 32.992188 31.921875 32.617188 C 31.769531 32.242188 31.40625 32 31 32 Z M 21.414063 34 L 28.585938 34 L 25 37.585938 Z"/></svg>