<svg xmlns="http://www.w3.org/2000/svg"  viewBox="0 0 64 64" width="64px" height="64px"><path d="M 31 3 C 24.898542 3 19.872089 7.5586373 19.111328 13.453125 L 9.28125 17.548828 L 5.9042969 32.1875 L 8.8613281 39.089844 L 6.8417969 45.152344 L 10.355469 52.185547 L 15.171875 57 L 28.828125 57 L 32.310547 53.519531 L 41.787109 59.205078 L 55.246094 54.3125 L 54.054688 47.160156 L 56.158203 40.847656 L 52.617188 33.761719 L 57 31.132812 L 57 10 L 46 10 L 47 14 L 53 14 L 53 28.867188 L 47.382812 32.238281 L 51.841797 41.152344 L 49.945312 46.839844 L 50.753906 51.6875 L 42.212891 54.794922 L 31.689453 48.480469 L 27.171875 53 L 16.828125 53 L 13.644531 49.814453 L 11.158203 44.847656 L 13.138672 38.910156 L 10.095703 31.8125 L 12.71875 20.451172 L 19.318359 17.701172 C 19.765042 19.63475 20.668333 21.394296 21.923828 22.845703 L 31 32.683594 L 40.076172 22.845703 C 41.896172 20.741703 43 18 43 15 C 43 8.373 37.627 3 31 3 z M 31 11 C 33.209 11 35 12.791 35 15 C 35 17.209 33.209 19 31 19 C 28.791 19 27 17.209 27 15 C 27 12.791 28.791 11 31 11 z M 22 38 A 4 4 0 0 0 22 46 A 4 4 0 0 0 22 38 z"/></svg>